<svg width="100" height="21" viewBox="0 0 100 21" fill="none" xmlns="http://www.w3.org/2000/svg">
<path fill-rule="evenodd" clip-rule="evenodd" d="M87.532 3.74229C87.532 4.8311 86.6993 5.57833 85.6319 5.57833C84.5644 5.57833 83.7318 4.8311 83.7318 3.74229C83.7318 2.65347 84.5644 1.90625 85.6319 1.90625C86.6993 1.90625 87.532 2.65347 87.532 3.74229ZM38.8129 12.1539C38.8129 15.7192 36.742 17.7047 32.8778 17.7047C29.2057 17.7047 26.6865 15.6125 26.6865 11.6415V8.22564C26.6865 4.51086 29.099 2.16244 32.8778 2.16244C36.6566 2.16244 38.8129 4.21197 38.8129 7.71325V7.88405H35.9948V7.67055C35.9948 5.87722 34.9273 4.68166 32.8778 4.68166C30.7642 4.68166 29.5046 6.2188 29.5046 8.09754V11.7696C29.5046 13.8191 30.6788 15.1855 32.8778 15.1855C35.1195 15.1855 35.9948 14.0967 35.9948 12.3033V12.1539H32.3654V9.67739H38.8129V12.1539ZM50.2561 15.1001C49.5302 16.2103 48.292 17.7047 45.4525 17.7047C42.2928 17.7047 40.0085 15.3136 40.0085 12.0258C40.0085 8.82341 42.2074 6.51769 45.3244 6.51769C48.3987 6.51769 50.4696 8.67397 50.4696 11.855V12.9011H42.7625C42.8693 14.3102 43.8727 15.399 45.4098 15.399C46.9043 15.399 47.6942 14.5664 48.0571 13.8191L50.2561 15.1001ZM47.7369 11.0224H42.7839C42.9974 9.72008 43.7873 8.82341 45.3031 8.82341C46.6908 8.82341 47.5448 9.67739 47.7369 11.0224ZM54.8249 11.9404V17.4058H52.1349V6.81658H54.7822V8.52452H55.0811C55.508 7.54246 56.4901 6.64579 58.4329 6.64579C60.7813 6.64579 62.5533 8.33238 62.5533 11.0864V17.4058H59.8633V11.3426C59.8633 9.86953 59.0093 8.99421 57.4722 8.99421C55.7429 8.99421 54.8249 10.0617 54.8249 11.9404ZM69.6199 17.7047C72.4594 17.7047 73.6976 16.2103 74.4235 15.1001L72.2245 13.8191C71.8616 14.5664 71.0717 15.399 69.5772 15.399C68.0401 15.399 67.0367 14.3102 66.9299 12.9011H74.637V11.855C74.637 8.67397 72.5661 6.51769 69.4918 6.51769C66.3748 6.51769 64.1758 8.82341 64.1758 12.0258C64.1758 15.3136 66.4602 17.7047 69.6199 17.7047ZM66.9513 11.0224H71.9043C71.7121 9.67739 70.8582 8.82341 69.4705 8.82341C67.9547 8.82341 67.1647 9.72008 66.9513 11.0224ZM78.9922 17.4058V11.428C78.9922 9.93358 79.9743 9.2077 81.3407 9.2077H82.9205V6.77388H81.8957C80.5507 6.77388 79.6541 7.17952 79.2484 8.35373H78.9495V6.81658H76.3022V17.4058H78.9922ZM86.9769 17.4058V6.81658H84.2869V17.4058H86.9769ZM94.1075 13.7337L91.6524 17.4058H88.4713L92.2288 12.0685L88.514 6.81658H91.631L94.1075 10.446H94.3637L96.8402 6.81658H99.9572L96.2425 12.0685L99.9999 17.4058H96.8189L94.3637 13.7337H94.1075Z" fill="black"/>
<path fill-rule="evenodd" clip-rule="evenodd" d="M8.13306 0C12.6248 0 16.2661 3.64129 16.2661 8.13306L0 10.8441V8.13306C0 3.64129 3.64129 0 8.13306 0ZM9.40385 20.3326C13.8956 20.3326 17.5369 16.6913 17.5369 12.1996H1.27079C1.27079 16.6913 4.91208 20.3326 9.40385 20.3326Z" fill="black"/>
</svg>
