<svg width="120" height="24" viewBox="0 0 120 24" fill="none" xmlns="http://www.w3.org/2000/svg">
<path fill-rule="evenodd" clip-rule="evenodd" d="M12.002 7.38503C9.44807 7.38503 7.38806 9.44549 7.38806 12C7.38806 14.5545 9.44807 16.615 12.002 16.615C14.5559 16.615 16.6159 14.5545 16.6159 12C16.6159 9.44549 14.5559 7.38503 12.002 7.38503ZM12.002 15.0003C10.3516 15.0003 9.00235 13.6548 9.00235 12C9.00235 10.3452 10.3476 8.99967 12.002 8.99967C13.6564 8.99967 15.0017 10.3452 15.0017 12C15.0017 13.6548 13.6524 15.0003 12.002 15.0003ZM17.8809 7.19624C17.8809 6.60181 17.399 6.11983 16.8047 6.11983C16.2104 6.11983 15.7285 6.60181 15.7285 7.19624C15.7285 7.79068 16.2063 8.27266 16.8047 8.27266C17.399 8.27266 17.8809 7.79472 17.8809 7.19624ZM20.9367 8.28874C20.8685 6.8468 20.5392 5.56956 19.4831 4.51722C18.431 3.46493 17.1541 3.13557 15.7124 3.06328L15.2381 3.04236C13.4415 2.9796 9.63825 2.98658 8.28754 3.06328C6.84995 3.13153 5.573 3.46089 4.5169 4.51322C3.5268 5.49979 3.17902 6.68402 3.07987 8.01632L3.06323 8.28474C2.98275 9.7033 2.9791 13.8263 3.05226 15.4908L3.06323 15.7112C3.13151 17.1532 3.4608 18.4304 4.5169 19.4828C5.50699 20.4693 6.68768 20.8204 8.01923 20.9201L8.28754 20.9368C9.70578 21.0173 13.8279 21.0209 15.492 20.9477L15.7124 20.9368C17.1541 20.8685 18.431 20.5391 19.4831 19.4828C20.5352 18.4304 20.8645 17.1532 20.9367 15.7112L20.9576 15.2369C21.0204 13.4405 21.0134 9.63975 20.9367 8.28874ZM19.0173 17.3058C18.7041 18.093 18.0977 18.6995 17.3066 19.0168C16.122 19.4868 13.3111 19.3783 12.002 19.3783L10.536 19.3883C9.17844 19.3904 7.53074 19.3457 6.69737 19.0168C5.91032 18.7035 5.30394 18.0971 4.98673 17.3058C4.5169 16.1209 4.62533 13.3094 4.62533 12L4.61539 10.5337C4.61323 9.17581 4.65791 7.52774 4.98673 6.69418C5.29994 5.90696 5.90628 5.30044 6.69737 4.98316C7.88198 4.51322 10.6929 4.62168 12.002 4.62168L13.468 4.61174C14.8256 4.60958 16.4733 4.65426 17.3066 4.98316C18.0937 5.29644 18.7001 5.90292 19.0173 6.69418C19.4871 7.87905 19.3787 10.6906 19.3787 12L19.3894 13.4663C19.3924 14.8242 19.3489 16.4723 19.0173 17.3058Z" fill="black"/>
<path fill-rule="evenodd" clip-rule="evenodd" d="M67.9442 7.98748C67.9569 8.16246 67.9569 8.33753 67.9569 8.51251C67.9569 13.85 63.8326 20 56.2944 20C53.9721 20 51.8147 19.3375 50 18.1875C50.33 18.225 50.6472 18.2375 50.9898 18.2375C52.906 18.2375 54.67 17.6 56.0787 16.5125C54.2767 16.475 52.7665 15.3125 52.2462 13.7125C52.5 13.75 52.7538 13.775 53.0203 13.775C53.3883 13.775 53.7564 13.725 54.099 13.6375C52.2856 13.2754 50.9099 11.7481 50.8171 9.87678L50.8122 9.62503C51.3578 9.92502 51.9924 10.1125 52.6649 10.1375C51.5609 9.41247 50.8376 8.17498 50.8376 6.77498C50.8376 6.02498 51.0405 5.33748 51.3959 4.73748C53.4137 7.18747 56.4467 8.78745 59.8477 8.96247C59.7842 8.66247 59.7462 8.35 59.7462 8.03749C59.7462 5.8125 61.5736 4 63.8452 4C65.0254 4 66.0913 4.4875 66.8401 5.27499C67.7665 5.1 68.6548 4.76251 69.4416 4.3C69.137 5.23753 68.4898 6.02502 67.6396 6.52499C68.4645 6.43752 69.264 6.21248 70 5.90001C69.4417 6.69998 68.7437 7.41247 67.9442 7.98748Z" fill="black"/>
<path fill-rule="evenodd" clip-rule="evenodd" d="M108 2C102.486 2 98 6.48597 98 12C98 17.514 102.486 22 108 22C113.514 22 118 17.514 118 12C118 6.48597 113.514 2 108 2ZM114.612 6.61154C115.801 8.065 116.522 9.91626 116.541 11.9323L116.216 11.8695C115.347 11.7122 112.977 11.3576 110.593 11.6574C110.361 11.0912 110.142 10.5932 109.842 9.97938C113 8.69 114.432 6.85513 114.612 6.61154ZM113.662 5.6238L113.497 5.83867C113.048 6.38476 111.733 7.75443 109.185 8.70922L108.894 8.18416C107.578 5.85478 106.218 4.00323 105.998 3.70891C108.707 3.05599 111.562 3.76014 113.662 5.6238ZM104.369 4.28307L104.912 5.05052C105.53 5.94338 106.559 7.48788 107.535 9.22294C103.54 10.284 100.021 10.2687 99.6389 10.2636C100.193 7.61311 101.979 5.41021 104.369 4.28307ZM99.4585 12.013L99.4628 11.752L99.7503 11.7544C100.824 11.7535 104.484 11.6611 108.241 10.5365C108.486 11.015 108.719 11.5008 108.934 11.986C105.845 12.8559 103.039 15.354 101.654 17.7242C100.29 16.2099 99.4585 14.2069 99.4585 12.013ZM102.757 18.7514C103.649 16.9275 106.071 14.5732 109.514 13.3984C110.714 16.5146 111.209 19.1263 111.336 19.8757C108.59 21.0456 105.288 20.7246 102.757 18.7514ZM112.772 19.0937L112.693 18.6556C112.508 17.695 112.038 15.5444 111.113 13.0037C113.79 12.5752 116.141 13.2766 116.434 13.3688C116.053 15.7455 114.689 17.798 112.772 19.0937Z" fill="black"/>
</svg>
